<svg xmlns="http://www.w3.org/2000/svg" width="104.5" height="117.04" viewBox="0 0 104.5 117.04">
  <g id="event-schedule" transform="translate(-6 -3)">
    <path id="Path_515" data-name="Path 515" d="M52.94,87.88A33.44,33.44,0,1,1,86.38,54.44,33.44,33.44,0,0,1,52.94,87.88Zm0-58.52A25.08,25.08,0,1,0,78.02,54.44,25.08,25.08,0,0,0,52.94,29.36Z" transform="translate(24.12 32.16)" fill="#72daeb"/>
    <path id="Path_516" data-name="Path 516" d="M40.826,56.26,30,45.434V27h8.36V42.006l8.36,8.36Z" transform="translate(42.88 42.88)" fill="#72daeb"/>
    <path id="Path_517" data-name="Path 517" d="M106.32,19.72a8.36,8.36,0,0,0-8.36-8.36H81.24V3H72.88v8.36H39.44V3H31.08v8.36H14.36A8.36,8.36,0,0,0,6,19.72v83.6a8.36,8.36,0,0,0,8.36,8.36H31.08v-8.36H14.36V19.72H31.08v8.36h8.36V19.72H72.88v8.36h8.36V19.72H97.96V44.8h8.36Z" transform="translate(0 0)" fill="#72daeb"/>
  </g>
</svg>
